<?xml version="1.0" encoding="UTF-8"?>
<svg id="Capa_2" data-name="Capa 2" xmlns="http://www.w3.org/2000/svg" xmlns:xlink="http://www.w3.org/1999/xlink" viewBox="0 0 114.69 111.31">
  <defs>
    <style>
      .cls-1 {
        fill: url(#Degradado_sin_nombre_219);
      }
    </style>
    <linearGradient id="Degradado_sin_nombre_219" data-name="Degradado sin nombre 219" x1="87.28" y1="120.14" x2="37.78" y2="6.93" gradientUnits="userSpaceOnUse">
      <stop offset="0" stop-color="#152e56"/>
      <stop offset=".08" stop-color="#14365d"/>
      <stop offset=".22" stop-color="#114e73"/>
      <stop offset=".39" stop-color="#0e7595"/>
      <stop offset=".58" stop-color="#09aac5"/>
      <stop offset=".67" stop-color="#07c4dc"/>
      <stop offset="1" stop-color="#05c1e3"/>
    </linearGradient>
  </defs>
  <g id="Capa_1-2" data-name="Capa 1">
    <path class="cls-1" d="m61.25.08C43.07-.94,25.47,7.36,14.74,22.07c-3.56,4.88-6.2,10-8.03,15.2-3.8.61-6.71,3.9-6.71,7.87,0,4.4,3.58,7.98,7.98,7.98s7.98-3.58,7.98-7.98c0-2.07-.8-3.95-2.1-5.37C24.14,10.58,59.99-2.49,87.53,16.94c13.05,9.21,20.5,24.59,19.64,40.54-1.83,33.74-34.47,53.78-63.8,43.59-13.2-4.58-23.11-14.39-28.27-26.3-.35-.82-.18-1.77.45-2.4l3.06-3.06c.54-.54,1.37-.66,2.04-.29l36.22,19.73c3.11,1.72,7.05,1.16,9.56-1.36l27.74-27.74c5.53-5.53,5.67-14.62.3-20.26-4.45-4.3-11.16-5.28-16.71-2.44,0,0-1.89.97-1.89.97.21-.11-2.97-4.64-3.3-5.04-1.33-1.61-2.84-3.05-4.53-4.28-4.28-3.11-9.79-3.77-14.96-1.32-1.39.66-2.64,1.59-3.73,2.68l-20.41,20.41,29.4,16.74,18.75-18.75-4.62-4.62h2.18s15.73,0,15.73,0v.9s0,17.01,0,17.01l-5.1-5.1-22.94,22.94c-.86.86-2.2,1.05-3.26.45l-35.94-20.22c-2.64-1.49-5.95-1.04-8.09,1.11l-5.2,5.19c-2.81,2.81-3.67,7.03-2.17,10.7,5.83,14.27,17.52,26.07,33.19,31.51,28.95,10.06,60.68-5.31,70.74-34.26C123.4,40.03,100.25,2.27,61.25.08ZM7.98,48.69c-1.96,0-3.56-1.6-3.56-3.56,0-1.96,1.6-3.56,3.56-3.56s3.56,1.6,3.56,3.56-1.6,3.56-3.56,3.56Zm57.43-.36l-8.21,8.21-.6-.36-13.65-8.1s11.1-11.1,11.11-11.11c3.61-3.61,8.46-1.92,11.37,1.46.24.28.47.57.68.87,1.97,2.78,1.74,6.6-.69,9.03Z"/>
  </g>
</svg>