<svg xmlns="http://www.w3.org/2000/svg" xmlns:xlink="http://www.w3.org/1999/xlink" viewBox="0 0 598.23 89.81"><defs><style>.cls-1{fill:#fff;}.cls-2{fill:#c1912d;}.cls-3{fill:url(#Degradado_sin_nombre_33);}</style><linearGradient id="Degradado_sin_nombre_33" x1="64.77" y1="85.62" x2="30.85" y2="4.85" gradientUnits="userSpaceOnUse"><stop offset="0" stop-color="#a56900"/><stop offset="0.13" stop-color="#c1912d"/><stop offset="0.63" stop-color="#fcc233"/><stop offset="0.93" stop-color="#fc6"/></linearGradient></defs><g id="Capa_2" data-name="Capa 2"><g id="Capa_1-2" data-name="Capa 1"><path class="cls-1" d="M133.12,70.65V20.7c0-2.22,1-3.45,2.78-3.45h37.36c6.48,0,10.56,4.91,10.56,12.06v5.38a12,12,0,0,1-4.14,9.53c-.86.69-.86,1.15,0,1.84a12.23,12.23,0,0,1,4.26,9.76V61.5c0,7.23-4.38,12.6-10.5,12.6H135.9C134.1,74.1,133.12,72.87,133.12,70.65Zm9.45-29.74h28c3.15,0,5.44-2.92,5.44-6v-4c0-2.92-1.8-5.07-4.76-5.07H142.57c-1,0-1.61.77-1.61,2V39C141,40.22,141.52,40.91,142.57,40.91Zm0,24.51h28.65c3,0,4.94-2.15,4.94-5.61V55.43a5.77,5.77,0,0,0-5.43-5.91H142.57c-1,0-1.61.77-1.61,2v12C141,64.73,141.52,65.42,142.57,65.42Z"/><path class="cls-1" d="M215.44,71.18V54.59a4,4,0,0,0-.74-2.46L193,20.78c-1.29-1.84-.62-3.53,1.42-3.53h4.26a3.16,3.16,0,0,1,2.84,1.69l16.68,23.43c.74,1.08,1.54,1.08,2.22,0l16.55-23.51a3.09,3.09,0,0,1,2.84-1.61H244c2,0,2.72,1.69,1.42,3.53L223.9,52.13a3.68,3.68,0,0,0-.74,2.46V71.18c0,1.85-.86,2.92-2.35,2.92h-3C216.31,74.1,215.44,73,215.44,71.18Z"/><path class="cls-1" d="M253.24,71.18V68.42c0-1.85.87-3,2.35-3h34.58c3.15,0,4.69-1.77,4.69-4.84V57.05a4.14,4.14,0,0,0-3.39-4.23l-30.26-5.61c-5.44-1-9.08-4.61-9.08-11.29V29.23c0-7.68,4.14-12,10.56-12h35.2c1.48,0,2.41,1.07,2.41,2.92v2.76c0,1.85-.93,2.92-2.35,2.92H264.54c-3,0-4.38,2.31-4.38,4.77V34.3a4.42,4.42,0,0,0,3.52,4.61l30.88,5.69c5.12,1,8.33,4.84,8.33,11.14v6.84c0,7.14-4.57,11.52-10.8,11.52H255.65C254.17,74.1,253.24,73,253.24,71.18Z"/><path class="cls-1" d="M313.15,71.18v-51c0-1.85.86-2.92,2.35-2.92h3.21c1.42,0,2.28,1.07,2.28,2.92V38.91c0,1.31.62,2,1.61,2h30.63c1,0,1.6-.69,1.6-2V20.17c0-1.85.81-2.92,2.29-2.92h3.21c1.48,0,2.28,1.07,2.28,2.92v51c0,1.85-.8,2.92-2.28,2.92h-3.21c-1.48,0-2.29-1.07-2.29-2.92V51.75c0-1.23-.61-2-1.6-2H322.6c-1,0-1.61.77-1.61,2V71.18c0,1.85-.86,2.92-2.28,2.92H315.5C314,74.1,313.15,73,313.15,71.18Z"/><path class="cls-1" d="M372.87,59.2V32.46c0-9.6,4.94-15.21,12.85-15.21h25.19c7.6,0,12.79,5.45,12.79,15.21V59.2c0,9.45-5.13,14.9-12.85,14.9H385.72C378.12,74.1,372.87,68.57,372.87,59.2Zm14.51,6.3h21.93c4.38,0,6.6-2.84,6.6-8.38V34.38c0-5.45-2.16-8.53-7-8.53H387.69c-5.06,0-7,3.61-7,8.53V57.12C380.65,62.5,383.43,65.5,387.38,65.5Z"/><circle class="cls-2" cx="398.28" cy="45.68" r="5.11"/><path class="cls-1" d="M434,71.18V20.7c0-2.22,1-3.45,2.78-3.45h36.62c7.1,0,11.49,5.53,11.49,14.06v8c0,9.22-4.2,14.29-12,14.29H443.4c-1,0-1.6.69-1.6,2V71.18c0,1.77-.87,2.92-2.29,2.92H436.3C434.82,74.1,434,73,434,71.18Zm9.45-26.27h27.91c3.89,0,5.69-2.77,5.69-6.15V31.92c0-3.61-2.47-6.07-5.69-6.07H443.4c-1,0-1.6.77-1.6,2V42.91C441.8,44.14,442.41,44.91,443.4,44.91Z"/><path class="cls-1" d="M516.34,71.18V54.59a4,4,0,0,0-.74-2.46L493.86,20.78c-1.3-1.84-.62-3.53,1.42-3.53h4.26a3.16,3.16,0,0,1,2.84,1.69l16.68,23.43c.74,1.08,1.54,1.08,2.22,0l16.55-23.51a3.09,3.09,0,0,1,2.84-1.61h4.2c2,0,2.72,1.69,1.42,3.53L524.8,52.13a3.63,3.63,0,0,0-.74,2.46V71.18c0,1.85-.87,2.92-2.35,2.92h-3C517.2,74.1,516.34,73,516.34,71.18Z"/><path class="cls-1" d="M542,72.26a4.1,4.1,0,0,1,.43-1.69l23-50.94c.74-1.61,1.66-2.38,3.21-2.38h3.15c1.54,0,2.47.77,3.21,2.38l22.91,51a3.22,3.22,0,0,1,.37,1.61,1.76,1.76,0,0,1-2,1.84h-3.64c-1.3,0-2.1-.69-2.78-2.07L586,63.5a1.91,1.91,0,0,0-1.85-1.38h-28a1.93,1.93,0,0,0-1.91,1.38L550.37,72c-.68,1.38-1.48,2.07-2.78,2.07H544A1.81,1.81,0,0,1,542,72.26Zm19.21-18.75h17.91c.86,0,1.42-.46,1.42-1.23a2.92,2.92,0,0,0-.25-1.15l-9-20.36c-.37-.69-.68-1.08-1.11-1.08s-.74.31-1.11,1.08l-9,20.36a2.89,2.89,0,0,0-.24,1.15C559.76,53.05,560.25,53.51,561.18,53.51Z"/><path class="cls-3" d="M49.42.07A43.54,43.54,0,0,0,11.89,17.81,47.19,47.19,0,0,0,5.42,30.07a6.44,6.44,0,1,0,5.76,2A38.83,38.83,0,0,1,70.62,13.67,37.61,37.61,0,0,1,86.47,46.38,38.75,38.75,0,0,1,12.18,60.33a1.75,1.75,0,0,1,.36-1.94L15,55.92a1.38,1.38,0,0,1,1.64-.23L45.88,71.61a6.51,6.51,0,0,0,7.72-1.09L76,48.13A11.39,11.39,0,0,0,62.74,29.82l-1.52.78a33.32,33.32,0,0,0-2.67-4.07,19.89,19.89,0,0,0-3.65-3.45A11.66,11.66,0,0,0,42.83,22a10.86,10.86,0,0,0-3,2.16L23.35,40.64,47.08,54.15,62.21,39l-3.73-3.73H72.93V49.75l-4.12-4.12L50.31,64.14a2.21,2.21,0,0,1-2.64.36l-29-16.32a5.45,5.45,0,0,0-6.53.9L8,53.27A7.93,7.93,0,0,0,6.2,61.9a44.82,44.82,0,0,0,83.86-2.22C99.57,32.3,80.89,1.83,49.42.07Zm-43,39.22a2.87,2.87,0,1,1,2.87-2.87A2.88,2.88,0,0,1,6.44,39.29ZM52.77,39l-6.62,6.62-.49-.29-11-6.53,9-9c2.92-2.92,6.82-1.55,9.17,1.17a8.88,8.88,0,0,1,.55.7A5.67,5.67,0,0,1,52.77,39Z"/></g></g></svg>