<svg xmlns="http://www.w3.org/2000/svg" viewBox="0 0 84.68 78.39"><defs><style>.cls-1{fill:#c1912d;}</style></defs><g id="Capa_2" data-name="Capa 2"><g id="Capa_1-2" data-name="Capa 1"><path class="cls-1" d="M43.62,34.64v9.81l9.73,6.28c1.27-1.18,2.31-2.33,3.53-3.25a16.82,16.82,0,0,1,15.2-2.94c1.38.37,1.64.67,1,2-.31.66-1.37.21-2.12,0A15,15,0,0,0,55.29,70a5.51,5.51,0,0,0,.5.56c1-1.26,1.82-2.54,2.84-3.66s2.15-2.06,3.35-3.19a7.45,7.45,0,0,1-1.16-6.55,6.39,6.39,0,0,1,2.6-3.55,7.06,7.06,0,0,1,8.47.41c2.71,2.34,3.06,5.62.94,9.82a20.21,20.21,0,0,1,5.94,6.73,2.88,2.88,0,0,0,1.3-1.37A15,15,0,0,0,77,49.6c-.54-.46-1.22-.8-1.35-1.61.69-1.27,1.07-1.41,2.12-.63A16.54,16.54,0,0,1,84.33,57.8a17.24,17.24,0,0,1-16.6,20.58A17.25,17.25,0,0,1,51.45,54.49c.23-.56.47-1.1.77-1.8l-9.85-6.37-9.9,6.37c.2.53.35,1,.55,1.41a17.27,17.27,0,0,1-12.8,24.11,11.71,11.71,0,0,1-2,0c-.59-1.54-.41-1.91,1-2.11a15,15,0,0,0,7.12-2.93,9.62,9.62,0,0,0,.76-.72,15.3,15.3,0,0,0-5.19-6.36c-.44-.33-.95-.57-1.38-.92a13.11,13.11,0,0,1-1.11-1.12c.5-.6.9-1.1,1.33-1.58a4.61,4.61,0,0,0-.32-6.67,4.66,4.66,0,0,0-6.7,6.45c.45.54.94,1.05,1.31,1.46,0,1-.62,1.31-1.19,1.66a16,16,0,0,0-5.36,5.33,19.78,19.78,0,0,0-.92,1.78c2,2,4.5,2.82,7.08,3.65v1.51a2.33,2.33,0,0,1-2.21.11c-6.84-2.3-11-6.93-12.19-14.11A17.13,17.13,0,0,1,12.89,44.49c6.77-1.64,12.55.18,17.31,5.25l1,1.07L41,44.51a43.06,43.06,0,0,0,0-9.89c-.61-.14-1.25-.3-1.89-.41A17.14,17.14,0,0,1,25.46,20.75,16.87,16.87,0,0,1,28,7.62a5.31,5.31,0,0,1,.7-.92,1.17,1.17,0,0,1,1.52-.07A1,1,0,0,1,30.46,8c-.26.43-.57.82-.82,1.25a14.77,14.77,0,0,0,.07,16.15c.28.45.66.84,1.15,1.47A20.24,20.24,0,0,1,37,20c-.23-.45-.41-.84-.62-1.21a6.9,6.9,0,1,1,12.33-.61c-.25.55-.56,1.07-.92,1.77a20.65,20.65,0,0,1,6.07,6.82,11.61,11.61,0,0,0,1-1.11A15,15,0,0,0,46,2.69,14.49,14.49,0,0,0,34.69,4.32,5.58,5.58,0,0,1,33.36,5a.83.83,0,0,1-1.1-.49,1.53,1.53,0,0,1,.16-1.2A5.07,5.07,0,0,1,33.89,2.2a17.26,17.26,0,1,1,11.71,32C45,34.32,44.41,34.46,43.62,34.64Zm-37.76,36A20.27,20.27,0,0,1,12,63.84a7.54,7.54,0,0,1-1.49-5.37,6.49,6.49,0,0,1,2.72-4.74,7.08,7.08,0,0,1,8.35.12A7,7,0,0,1,24,57.52a7.66,7.66,0,0,1-1.23,6.25c1.15,1.09,2.3,2,3.29,3.14s1.89,2.41,2.82,3.63c4.83-5.36,4.74-14.43-1.09-20.13a15.06,15.06,0,0,0-21.44.42C.61,57,1.28,65.91,5.86,70.67ZM32.62,28.56C38.4,34,48.07,33,52.07,28.4c-.38-.67-.74-1.41-1.19-2.09a15.52,15.52,0,0,0-5.14-4.86c-.73-.43-1.27-.9-.91-1.83A16.45,16.45,0,0,0,46.24,18a4.4,4.4,0,0,0,.1-5A4.38,4.38,0,0,0,42,10.76a4.47,4.47,0,0,0-4.08,3.16,4.43,4.43,0,0,0,1.3,5,1.55,1.55,0,0,1,.52,2A16.26,16.26,0,0,0,32.62,28.56Zm25,43.86c5,4.94,14.45,5,19.41.08A2.61,2.61,0,0,0,77,72a9.94,9.94,0,0,0-.54-1,16.6,16.6,0,0,0-5.37-5.53c-.59-.38-1.31-.66-1.4-1.72.38-.43.86-1,1.31-1.48a4.67,4.67,0,1,0-7.06.13c.46.52,1.17.88,1.18,2-.39.31-.85.76-1.38,1.11A16.73,16.73,0,0,0,58.35,71C58.08,71.48,57.87,72,57.65,72.42Z"/></g></g></svg>