<svg xmlns="http://www.w3.org/2000/svg" viewBox="0 0 97.57 82.31"><defs><style>.cls-1{fill:#c1912d;}</style></defs><g id="Capa_2" data-name="Capa 2"><g id="Capa_1-2" data-name="Capa 1"><path class="cls-1" d="M28.41,79.73h5.3c.75-3.15.89-6.24,1.31-9.26-.72-.66-1.52-.42-2.25-.42q-12.6,0-25.19,0a16.41,16.41,0,0,1-1.72,0A6,6,0,0,1,0,63.9c0-.44,0-.89,0-1.34Q0,35,0,7.4C0,7,0,6.51,0,6.07A6,6,0,0,1,5.94,0c.5,0,1,0,1.52,0H90.11c.51,0,1,0,1.53,0a6,6,0,0,1,5.91,6.05c0,.38,0,.76,0,1.14q0,27.78,0,55.55c0,.38,0,.76,0,1.14A6,6,0,0,1,91.71,70,16.45,16.45,0,0,1,90,70H65c-.75,0-1.49,0-2.43.08.3,3.25.62,6.3,1.23,9.52l5.38.16c.57.5,1,1,.61,1.56a2.86,2.86,0,0,1-1.35.87,4.13,4.13,0,0,1-1.32,0H30.46a4.2,4.2,0,0,1-1.33,0,3.77,3.77,0,0,1-1.36-.87C27.47,81.05,27.54,81,28.41,79.73ZM48.77,2.55c-13.74,0-27.49.05-41.23,0-3.52,0-5,1.28-5,5q.1,27.5,0,55c0,3.69,1.47,5,5,5q41.25-.08,82.48,0c3.46,0,5-1.22,5-5q-.1-27.49,0-55c0-3.67-1.46-5-5-5C76.27,2.6,62.52,2.55,48.77,2.55ZM59.9,70.08a28,28,0,0,0-5.55.15c-.22.76-.41,1.43-.61,2.09a5.12,5.12,0,0,1-9.89.05c-.23-.72-.44-1.44-.69-2.27a27.33,27.33,0,0,0-5.42.11c-.62,3.09-.89,6.14-1.22,9.28a8.49,8.49,0,0,0,1.27.23q11,0,21.93,0a7.74,7.74,0,0,0,1.38-.3C60.7,76.31,60.32,73.31,59.9,70.08Zm-13.74.09c.09,2.19,1.14,3.52,2.68,3.36a3.48,3.48,0,0,0,1.82-.87,2.46,2.46,0,0,0,.71-2.55A31.38,31.38,0,0,0,46.16,70.17Z"/><path class="cls-1" d="M25.83,16.59l1.29-1.34a18.8,18.8,0,0,1,6.51,4.66c.56.06,1.31.2,2.06.23,4.57.17,9.14.3,13.72.49Q57.69,21,66,21.4a19,19,0,0,1,2.21.38,13.67,13.67,0,0,1,0,2.32c-.7,3.62-1.45,7.22-2.19,10.82a5.56,5.56,0,0,1-5,4.76c-2.64.38-5.29.68-7.93,1l-11.91,1.4c-.63.07-1.27.06-2.08.1L37.3,45.64c.77.65,1.56.42,2.28.43H62.49c.8,0,1.61.11,2.63.18-.15,2,.41,3.79-.06,5.59s-2.29,2.84-4.54,2.67A3.88,3.88,0,0,1,56.85,51a20.77,20.77,0,0,1,0-2.23c-1.48-.45-10.79-.53-13-.09,0,.56,0,1.17,0,1.77a4,4,0,0,1-4.32,4.08c-2.57-.11-4.15-1.64-4.12-4.23,0-.69.14-1.39.24-2.32-1.44-1.44-1.06-3.13,0-4.87.49-.81.84-1.7,1.12-2.27-1.09-3.7-2.1-7.1-3.09-10.51q-1.22-4.21-2.37-8.44a3.36,3.36,0,0,0-1.62-2.23,20.12,20.12,0,0,1-2.38-1.59A14.43,14.43,0,0,1,25.83,16.59ZM41.18,29c-.37-2.18-.7-4.1-1-6.14-1.1,0-2-.1-3-.11s-1.86,0-3,0L36,29.05A13.13,13.13,0,0,0,41.18,29Zm7.67-5.75a33.84,33.84,0,0,0-5.87,0,22.93,22.93,0,0,0,.93,5.85A12.59,12.59,0,0,0,49.09,29C49.06,27.05,49.37,25.2,48.85,23.23ZM41.51,31.8a10,10,0,0,0-4.71.14c.49,1.72.93,3.35,1.41,5,.8,2.77,1.26,3,4,2.35.11,0,.2-.14.46-.33A51.35,51.35,0,0,0,41.51,31.8Zm10.14-8.33a18.32,18.32,0,0,0,.08,5.68A18.4,18.4,0,0,0,57.07,29l.45-5.33A45.75,45.75,0,0,0,51.65,23.47Zm5.16,8.4a12,12,0,0,0-5-.05A13.07,13.07,0,0,0,52,38.23l4.31-.58Zm-7.68,6.42c-.09-2.18.22-4.3-.18-6.35a6.86,6.86,0,0,0-4.68.16c.37,2.18.74,4.39,1.12,6.65A6.09,6.09,0,0,0,49.13,38.29Zm16.42-14.2A19,19,0,0,0,60.3,24a10.45,10.45,0,0,0-.37,5.15h4.38a3.1,3.1,0,0,0,.39-.73C65,27.05,65.24,25.69,65.55,24.09Zm-6.62,13c3.31.44,5-1.5,4.82-5.29a8.24,8.24,0,0,0-4.37.09ZM41.27,50.29a1.53,1.53,0,0,0-1.68-1.63,1.68,1.68,0,0,0-1.75,1.62,1.85,1.85,0,0,0,1.84,1.8A1.69,1.69,0,0,0,41.27,50.29ZM61,52.08a1.85,1.85,0,0,0,1.78-1.65A1.68,1.68,0,0,0,61,48.66a1.53,1.53,0,0,0-1.63,1.68A1.68,1.68,0,0,0,61,52.08Z"/><path class="cls-1" d="M88.51,61.38c.46-1.68.57-50,.19-52.49l-2.44-.44c-.54-1.62-.26-2.19,1.13-2.3a14.67,14.67,0,0,1,2.48,0c1,.09,1.44.57,1.55,1.6a11.81,11.81,0,0,1,0,1.33v52.3c0,2.15-.4,2.53-2.59,2.53h-71c-1,0-2.1.06-2.49-1.25a1.28,1.28,0,0,1,1.36-1.27c.64,0,1.27,0,1.91,0H88.51Z"/><path class="cls-1" d="M8.67,61.1l2.87.55.1,1.57c-1.47,1.07-3,.71-4.38.57A1.28,1.28,0,0,1,6.18,62.6a11,11,0,0,1-.06-1.52V9c0-.26,0-.51,0-.76.07-1.58.5-2,2.06-2.09.32,0,.64,0,1,0h70c.44,0,.89,0,1.33,0a1.6,1.6,0,0,1,1.69,1.28A1.3,1.3,0,0,1,80.8,8.65c-.64,0-1.28,0-1.91,0H9.21c-.75.72-.53,1.46-.53,2.13,0,6.43,0,12.85,0,19.28v31Z"/></g></g></svg>