<svg xmlns="http://www.w3.org/2000/svg" viewBox="0 0 93.57 91.67"><defs><style>.cls-1{fill:#c1912d;}</style></defs><g id="Capa_2" data-name="Capa 2"><g id="Capa_1-2" data-name="Capa 1"><path class="cls-1" d="M1.08,87.46V56.53c0-.49,0-1,0-1.46.15-2.07,1.17-3.13,3.26-3.18,3-.07,6,0,9,0h4c.06-.89.13-1.54.13-2.19,0-3.78,0-7.57,0-11.35,0-2.74,1-3.75,3.76-3.78,3.42,0,6.83,0,10.25,0,.66,0,1.31-.06,2.18-.1V32.32q0-5.58,0-11.17c0-2.79,1.07-3.86,3.87-3.88,3.36,0,6.72,0,10.08,0h2.14c0-.83.1-1.48.1-2.12,0-3.54,0-7.08,0-10.62a11.33,11.33,0,0,1,.06-1.65,3,3,0,0,1,3-2.83C57.15,0,61.37,0,65.58.06c1.94,0,3,1.33,3.07,3.37,0,3.36,0,6.72,0,10.07,0,4.64,0,9.28,0,13.92A4.06,4.06,0,0,1,68.48,29c-.17.37-.75.83-1.07.78a1.74,1.74,0,0,1-1.13-.94,5.41,5.41,0,0,1-.12-1.81V3c-1.5-.58-11.42-.69-13.62-.2,0,.6-.15,1.25-.15,1.9q0,30.95,0,61.89c0,.59.08,1.17.15,2.08A110.35,110.35,0,0,0,66.16,58.42V56.35q0-10.17,0-20.33c0-.91-.14-1.9,1.16-2.21a1.4,1.4,0,0,1,1.32,1.6c0,.92,0,1.83,0,2.75V56A88.4,88.4,0,0,0,76.59,48c-.43-.49-.79-1-1.2-1.38-1-1.06-2-2.11-3-3.17A1.94,1.94,0,0,1,73.72,40c.3,0,.61,0,.91,0H90.38c.31,0,.61,0,.92,0a2.12,2.12,0,0,1,2.25,2.33c0,.43,0,.85,0,1.28V59.2c0,.42,0,.85,0,1.28a2,2,0,0,1-1.11,2,2.11,2.11,0,0,1-2.36-.51c-1.28-1.2-2.58-2.39-4-3.67-.64.55-1.2,1-1.74,1.48A127.28,127.28,0,0,1,57,77.83a4.59,4.59,0,0,1-.5.24c-.9.34-1.61.16-1.86-.53a1.27,1.27,0,0,1,.7-1.68c.59-.32,1.19-.61,1.79-.92A123.54,123.54,0,0,0,84,56.7a7.68,7.68,0,0,1,.68-.6,2,2,0,0,1,3,.07c1,.86,2,1.78,3.14,2.84.55-1.95.23-3.69.29-5.4s0-3.66,0-5.5V42.92c-1.72-.48-13.59-.51-15.45-.06a9,9,0,0,0,.7,1c.79.85,1.63,1.65,2.4,2.53a2,2,0,0,1,0,2.95c-1.14,1.35-2.34,2.65-3.56,3.93A121.15,121.15,0,0,1,23,85.21c-3.25,1-6.55,1.87-9.8,3,1.23-.14,2.47-.23,3.7-.42a133.73,133.73,0,0,0,31.25-8.75,3.27,3.27,0,0,1,1.37-.46,2.15,2.15,0,0,1,1.33.7c.43.5.1,1-.36,1.42a4.46,4.46,0,0,1-1,.5,135.45,135.45,0,0,1-26.35,8A138.76,138.76,0,0,1,2.68,91.66,2.34,2.34,0,0,1,.33,90.6a2,2,0,0,1,.29-2.52C.78,87.89.91,87.69,1.08,87.46ZM36.23,20.19v57c2.06-.27,11.17-5,13.48-6.88.3-3,.18-48.9-.14-50.24C47.67,19.63,37.7,19.71,36.23,20.19ZM33.54,37.37c-2.35-.41-12.14-.31-13.42.1-.35,2.27-.25,44.54.13,45.92a103.75,103.75,0,0,0,13.29-4.74Zm-16.33,47c.38-2.91.27-28.39-.1-29.83H3.79c-.06.65-.16,1.18-.17,1.72q0,14.62,0,29.24a14.9,14.9,0,0,0,.24,1.75Z"/></g></g></svg>