<svg xmlns="http://www.w3.org/2000/svg" viewBox="0 0 87.14 89.37"><defs><style>.cls-1{fill:#c1912d;}</style></defs><g id="Capa_2" data-name="Capa 2"><g id="Capa_1-2" data-name="Capa 1"><path class="cls-1" d="M70.62,89.37h-.74a33.74,33.74,0,0,1-10.64-2.15c-8.07-2.85-16-7.43-24.09-14C21.79,62.37,12,50.34,5.14,36.42A47.18,47.18,0,0,1,.4,22.22a31,31,0,0,1-.28-7.55A10.23,10.23,0,0,1,2.26,9.33a46.89,46.89,0,0,1,6.67-6.5c4.94-4,9.59-3.77,14.22.64A34.78,34.78,0,0,1,30.68,14,9.75,9.75,0,0,1,28.74,25.7l-.56.57a24.7,24.7,0,0,1-2.51,2.38,3.45,3.45,0,0,0-1.09,4.4,21,21,0,0,0,2.84,5.46,132.57,132.57,0,0,0,9.71,11.66c3.78,3.9,8,7.51,12.12,11a19.57,19.57,0,0,0,4.31,2.49l.56.26a3.67,3.67,0,0,0,4.72-1,36,36,0,0,1,3.78-3.47,9.16,9.16,0,0,1,9.87-1.39A30.68,30.68,0,0,1,84.72,67.4c3.2,4.14,3.23,8.4.09,12.33a63.72,63.72,0,0,1-7.55,7.65C75.37,89.05,73,89.37,70.62,89.37ZM15.8,2a9.1,9.1,0,0,0-5.62,2.38A45,45,0,0,0,3.8,10.61a8.32,8.32,0,0,0-1.69,4.26,29.07,29.07,0,0,0,.27,7.07,45.35,45.35,0,0,0,4.56,13.6C13.64,49.2,23.28,61,36.41,71.63c8,6.45,15.65,10.92,23.49,13.69a31.66,31.66,0,0,0,10,2h0c2.19.06,4.43-.09,6-1.48a62.56,62.56,0,0,0,7.31-7.4c2.53-3.17,2.5-6.48-.11-9.85a28.68,28.68,0,0,0-11.45-8.69,7.2,7.2,0,0,0-7.82,1.12,35.36,35.36,0,0,0-3.58,3.29,5.66,5.66,0,0,1-7,1.38l-.55-.26A20.63,20.63,0,0,1,48,62.7c-4.13-3.52-8.41-7.17-12.26-11.14a138,138,0,0,1-9.86-11.83,23.66,23.66,0,0,1-3.12-6,5.46,5.46,0,0,1,1.73-6.7,22.33,22.33,0,0,0,2.3-2.19l.57-.58c2.71-2.78,3.22-5.86,1.55-9.43a32.42,32.42,0,0,0-7.09-9.95C19.74,3,17.79,2,15.8,2Z"/><path class="cls-1" d="M80.12,47.32H74.85l0-1c-.28-9.69-3.4-17.39-9.56-23.54s-14-9.44-23.48-9.6l-1,0V8l.89-.1c9.2-1,19.3,2.85,27,10.26A36,36,0,0,1,80.18,46.38Zm-3.33-2h1.44A34.15,34.15,0,0,0,67.36,19.59C60.29,12.83,51.19,9.19,42.81,9.8v1.42c9.6.38,17.41,3.71,23.88,10.16S76.32,35.54,76.79,45.32Z"/><path class="cls-1" d="M70.11,47.31,65,46.9l-.08-.83C63.55,31.88,56,24.35,41.82,23L40.91,23V18.1l.83-.14c6-1,13.65,1.65,19.35,6.77a26.56,26.56,0,0,1,9.08,21.56ZM66.82,45l1.39.11a24.59,24.59,0,0,0-8.45-18.93c-5-4.49-11.52-6.94-16.85-6.4v1.32C57.14,22.75,65.18,30.79,66.82,45Z"/><path class="cls-1" d="M60.21,46.78H54.76l-.1-.9C53.87,38.2,49.71,34.08,42,33.3l-.85-.09-.24-4.79.82-.18a13.36,13.36,0,0,1,11.19,2.85,19.41,19.41,0,0,1,7.31,14.66Zm-3.67-2h1.58a17.34,17.34,0,0,0-6.48-12.11A11.63,11.63,0,0,0,42.94,30L43,31.41C50.9,32.48,55.45,37,56.54,44.78Z"/></g></g></svg>